<svg xmlns="http://www.w3.org/2000/svg" xmlns:xlink="http://www.w3.org/1999/xlink" viewBox="0 0 406 81" preserveAspectRatio="xMidYMid" style="display: block; shape-rendering: auto; background: transparent;" width="406" height="81"><style type="text/css">
  .ld-text text {
    text-anchor: middle;
    dominant-baseline: middle;
    font-size: 80px;
    opacity: 0;
    user-select: none;
    pointer-events: none;
  }
</style>
<g style="transform-origin:203px 40.5px;transform:scale(1)" class="ld-text">
<g transform="translate(203,40.5)">
  <g transform="scale(1.0000) translate(0,0)"><g class="path" style="opacity: 1; transform-origin: -175.95px 3.95px; transform: matrix3d(0.91, 0, 0, 0, 0, 0.91, 0, 0, 0, 0, 0.91, 0, 0, 0, 0, 1); animation: 0.769231s linear -0.456923s infinite normal forwards running animate-ndwajsuxti; transform-box: view-box;"><path d="M3.92 45.51L3.92 45.51Q3.36 45.51 3 44.99Q2.64 44.47 2.64 43.91L2.64 43.91Q2.80 42.71 3.28 42.59Q3.76 42.47 4.56 42.47L4.56 42.47Q6.80 42.47 7.60 41.71Q8.40 40.95 8.52 39.67Q8.64 38.39 8.64 37.03L8.64 37.03L8.64 18.71Q8.64 17.27 8.52 16.03Q8.40 14.79 7.60 14.03Q6.80 13.27 4.56 13.27L4.56 13.27Q3.84 13.27 3.24 13.07Q2.64 12.87 2.64 11.67L2.64 11.67Q2.64 10.47 3.92 10.23L3.92 10.23Q7.60 9.67 9.56 9.11Q11.52 8.55 12.56 8.15Q13.60 7.75 14.40 7.67L14.40 7.67Q15.04 7.59 15.48 7.91Q15.92 8.23 15.92 9.19L15.92 9.19L15.92 37.03Q15.92 38.39 16.04 39.67Q16.16 40.95 17 41.71Q17.84 42.47 20.08 42.47L20.08 42.47Q20.80 42.47 21.32 42.59Q21.84 42.71 21.92 43.91L21.92 43.91Q21.92 44.47 21.60 44.99Q21.28 45.51 20.64 45.51L20.64 45.51Q18.32 45.35 16.36 45.31Q14.40 45.27 12.24 45.27L12.24 45.27Q10.08 45.27 8.16 45.31Q6.24 45.35 3.92 45.51" style="fill: rgb(3, 126, 243);" transform="translate(-188.227,-22.637)"></path></g><g class="path" style="opacity: 1; transform-origin: -176.39px -28.65px; transform: matrix3d(0.91, 0, 0, 0, 0, 0.91, 0, 0, 0, 0, 0.91, 0, 0, 0, 0, 1); animation: 0.769231s linear -0.406154s infinite normal forwards running animate-ndwajsuxti; transform-box: view-box;"><path d="M11.84-1.21L11.84-1.21Q9.60-1.21 8.08-2.61Q6.56-4.01 6.56-6.09L6.56-6.09Q6.56-7.93 8.40-9.37Q10.24-10.81 12.56-10.81L12.56-10.81Q14.56-10.81 15.84-9.41Q17.12-8.01 17.12-5.85L17.12-5.85Q17.12-3.93 15.60-2.57Q14.08-1.21 11.84-1.21" style="fill: rgb(248, 90, 64);" transform="translate(-188.227,-22.637)"></path></g><g class="path" style="opacity: 1; transform-origin: -140.23px 3.95px; transform: matrix3d(0.91, 0, 0, 0, 0, 0.91, 0, 0, 0, 0, 0.91, 0, 0, 0, 0, 1); animation: 0.769231s linear -0.355385s infinite normal forwards running animate-ndwajsuxti; transform-box: view-box;"><path d="M27.20 45.51L27.20 45.51Q26.64 45.51 26.28 44.99Q25.92 44.47 25.92 43.91L25.92 43.91Q26.08 42.71 26.56 42.59Q27.04 42.47 27.84 42.47L27.84 42.47Q30.08 42.47 30.88 41.71Q31.68 40.95 31.80 39.67Q31.92 38.39 31.92 37.03L31.92 37.03L31.92 18.71Q31.92 17.27 31.80 16.03Q31.68 14.79 30.88 14.03Q30.08 13.27 27.84 13.27L27.84 13.27Q27.12 13.27 26.52 13.07Q25.92 12.87 25.92 11.67L25.92 11.67Q25.92 10.47 27.20 10.23L27.20 10.23Q30.88 9.67 32.84 9.11Q34.80 8.55 35.80 8.15Q36.80 7.75 37.60 7.67L37.60 7.67Q38.24 7.59 38.68 7.91Q39.12 8.23 39.12 9.19L39.12 9.19L39.12 14.23L39.36 14.23Q40.96 12.71 42.64 11.31Q44.32 9.91 46.60 8.99Q48.88 8.07 52.24 8.07L52.24 8.07Q57.68 8.07 60.88 11.35Q64.08 14.63 64.08 19.99L64.08 19.99L64.08 37.03Q64.08 38.39 64.20 39.67Q64.32 40.95 65.16 41.71Q66 42.47 68.24 42.47L68.24 42.47Q68.96 42.47 69.48 42.59Q70 42.71 70.08 43.91L70.08 43.91Q70.08 44.47 69.76 44.99Q69.44 45.51 68.80 45.51L68.80 45.51Q66.48 45.35 64.52 45.31Q62.56 45.27 60.40 45.27L60.40 45.27Q58.24 45.27 56.32 45.31Q54.40 45.35 52.08 45.51L52.08 45.51Q51.52 45.51 51.16 44.99Q50.80 44.47 50.80 43.91L50.80 43.91Q50.88 42.71 51.40 42.59Q51.92 42.47 52.64 42.47L52.64 42.47Q54.88 42.47 55.72 41.71Q56.56 40.95 56.68 39.67Q56.80 38.39 56.80 37.03L56.80 37.03L56.80 20.07Q56.80 17.43 55.64 15.75Q54.48 14.07 52.72 13.27Q50.96 12.47 49.12 12.47L49.12 12.47Q46.40 12.47 44.32 13.47Q42.24 14.47 40.96 15.75Q39.68 17.03 39.20 17.99L39.20 17.99L39.20 37.03Q39.20 38.39 39.32 39.67Q39.44 40.95 40.28 41.71Q41.12 42.47 43.36 42.47L43.36 42.47Q44.08 42.47 44.60 42.59Q45.12 42.71 45.20 43.91L45.20 43.91Q45.20 44.47 44.88 44.99Q44.56 45.51 43.92 45.51L43.92 45.51Q41.60 45.35 39.64 45.31Q37.68 45.27 35.52 45.27L35.52 45.27Q33.36 45.27 31.44 45.31Q29.52 45.35 27.20 45.51" style="fill: rgb(48, 195, 158);" transform="translate(-188.227,-22.637)"></path></g><g class="path" style="opacity: 1; transform-origin: -78.59px 4.51px; transform: matrix3d(0.91, 0, 0, 0, 0, 0.91, 0, 0, 0, 0, 0.91, 0, 0, 0, 0, 1); animation: 0.769231s linear -0.304615s infinite normal forwards running animate-ndwajsuxti; transform-box: view-box;"><path d="M102.48 46.23L102.48 46.23Q97.60 46.23 94.68 43.43Q91.76 40.63 91.76 36.71L91.76 36.71Q91.76 32.63 93.88 30.31Q96 27.99 99.48 26.87Q102.96 25.75 107.08 25.35Q111.20 24.95 115.12 24.71L115.12 24.71L115.12 18.39Q115.12 14.63 113.24 12.51Q111.36 10.39 106.88 10.39L106.88 10.39Q104.64 10.39 102.68 11.83Q100.72 13.27 100.72 15.99L100.72 15.99Q100.72 17.27 101.36 18.15Q102 19.03 102.64 19.51Q103.28 19.99 103.28 20.15L103.28 20.15Q103.28 20.47 102.36 21.31Q101.44 22.15 99.84 22.15L99.84 22.15Q97.36 22.15 96 20.31Q94.64 18.47 94.64 16.23L94.64 16.23Q94.64 13.19 96.52 11.43Q98.40 9.67 101.36 8.87Q104.32 8.07 107.36 8.07L107.36 8.07Q110.96 8.07 114.36 8.95Q117.76 9.83 119.96 12.31Q122.16 14.79 122.16 19.75L122.16 19.75L122.16 38.39Q122.24 39.19 122.56 40.31Q122.88 41.43 123.80 42.27Q124.72 43.11 126.32 43.11L126.32 43.11Q126.88 43.11 127.20 43.31Q127.52 43.51 127.52 44.39L127.52 44.39Q127.52 45.11 126.72 45.51Q125.92 45.91 124.88 46.07Q123.84 46.23 123.12 46.23L123.12 46.23Q120.16 46.23 117.84 44.51Q115.52 42.79 115.12 39.75L115.12 39.75Q113.36 42.95 109.88 44.59Q106.40 46.23 102.48 46.23 zM105.04 41.91L105.04 41.91Q107.76 41.91 110.04 40.55Q112.32 39.19 113.72 36.83Q115.12 34.47 115.12 31.59L115.12 31.59L115.12 27.03Q106.88 27.59 103.36 29.67Q99.84 31.75 99.84 36.47L99.84 36.47Q99.84 41.91 105.04 41.91" style="fill: rgb(10, 142, 160);" transform="translate(-188.227,-22.637)"></path></g><g class="path" style="opacity: 1; transform-origin: -34.71px -6.02px; transform: matrix3d(0.91, 0, 0, 0, 0, 0.91, 0, 0, 0, 0, 0.91, 0, 0, 0, 0, 1); animation: 0.769231s linear -0.253846s infinite normal forwards running animate-ndwajsuxti; transform-box: view-box;"><path d="M148.88 46.23L148.88 46.23Q144.40 46.23 140.56 43.83Q136.72 41.43 134.40 37.11Q132.08 32.79 132.08 27.11L132.08 27.11Q132.08 22.15 134.44 17.79Q136.80 13.43 141 10.75Q145.20 8.07 150.56 8.07L150.56 8.07Q153.12 8.07 155.60 8.67Q158.08 9.27 159.84 10.31L159.84 10.31L160.08 10.31L160.08-1.93Q160.08-3.37 159.96-4.61Q159.84-5.85 159.04-6.61Q158.24-7.37 156-7.37L156-7.37Q155.28-7.37 154.68-7.57Q154.08-7.77 154.08-8.97L154.08-8.97Q154.08-10.17 155.36-10.41L155.36-10.41Q159.04-10.97 161-11.53Q162.96-12.09 164-12.49Q165.04-12.89 165.84-12.97L165.84-12.97Q166.48-13.05 166.92-12.73Q167.36-12.41 167.36-11.45L167.36-11.45L167.36 37.91Q167.36 42.63 173.60 42.63L173.60 42.63Q174.48 42.63 174.72 43.07Q174.96 43.51 174.96 43.91L174.96 43.91Q174.96 45.03 173.60 45.27L173.60 45.27L160.88 46.15Q160.32 46.15 160.24 45.67Q160.16 45.19 160.16 44.55L160.16 44.55L160.16 41.35L159.92 41.35Q157.92 43.43 154.92 44.83Q151.92 46.23 148.88 46.23 zM151.60 42.23L151.60 42.23Q154.64 42.23 156.64 40.99Q158.64 39.75 160.08 38.23L160.08 38.23L160.08 17.11Q159.68 15.75 158.60 14.35Q157.52 12.95 155.72 11.95Q153.92 10.95 151.36 10.95L151.36 10.95Q146.72 10.95 143.52 15.31Q140.32 19.67 140.32 27.51L140.32 27.51Q140.32 31.27 141.56 34.67Q142.80 38.07 145.28 40.15Q147.76 42.23 151.60 42.23" style="fill: rgb(244, 137, 36);" transform="translate(-188.227,-22.637)"></path></g><g class="path" style="opacity: 1; transform-origin: 8.77px 4.74px; transform: matrix3d(0.91, 0, 0, 0, 0, 0.91, 0, 0, 0, 0, 0.91, 0, 0, 0, 0, 1); animation: 0.769231s linear -0.203077s infinite normal forwards running animate-ndwajsuxti; transform-box: view-box;"><path d="M198.08 46.07L194.72 46.07Q192.72 41.67 190.72 36.47Q188.72 31.27 186.80 26.31Q184.88 21.35 183.12 17.67L183.12 17.67Q181.84 14.71 180.64 13.47Q179.44 12.23 177.04 11.91L177.04 11.91Q176 11.75 175.64 11.59Q175.28 11.43 175.20 10.39L175.20 10.39Q175.12 9.03 175.96 8.91Q176.80 8.79 178 8.71L178 8.71Q182.96 8.47 185.76 10.15Q188.56 11.83 190.32 15.83L190.32 15.83Q191.44 18.31 192.84 21.99Q194.24 25.67 195.76 29.43Q197.28 33.19 198.72 36.23L198.72 36.23L198.96 36.23L206.88 15.27Q207.68 12.95 206.96 12.39Q206.24 11.83 203.84 11.83L203.84 11.83Q203.12 11.83 202.64 11.71Q202.16 11.59 202.08 10.39L202.08 10.39Q202.08 9.91 202.36 9.35Q202.64 8.79 203.20 8.79L203.20 8.79Q205.52 8.87 207.20 8.95Q208.88 9.03 210.96 9.03L210.96 9.03Q212.40 9.03 213.28 8.99Q214.16 8.95 215.12 8.91Q216.08 8.87 217.60 8.79L217.60 8.79Q218.24 8.79 218.52 9.35Q218.80 9.91 218.80 10.39L218.80 10.39Q218.72 11.59 218.20 11.71Q217.68 11.83 217.04 11.83L217.04 11.83Q214.40 11.83 212.84 12.79Q211.28 13.75 210.16 16.55L210.16 16.55Q210.16 16.55 209.32 18.67Q208.48 20.79 207.12 24.15Q205.76 27.51 204.24 31.27Q202.72 35.03 201.32 38.39Q199.92 41.75 199.04 43.91Q198.16 46.07 198.08 46.07L198.08 46.07" style="fill: rgb(255, 200, 69);" transform="translate(-188.227,-22.637)"></path></g><g class="path" style="opacity: 1; transform-origin: 49.09px 4.51px; transform: matrix3d(0.91, 0, 0, 0, 0, 0.91, 0, 0, 0, 0, 0.91, 0, 0, 0, 0, 1); animation: 0.769231s linear -0.152308s infinite normal forwards running animate-ndwajsuxti; transform-box: view-box;"><path d="M230.16 46.23L230.16 46.23Q225.28 46.23 222.36 43.43Q219.44 40.63 219.44 36.71L219.44 36.71Q219.44 32.63 221.56 30.31Q223.68 27.99 227.16 26.87Q230.64 25.75 234.76 25.35Q238.88 24.95 242.80 24.71L242.80 24.71L242.80 18.39Q242.80 14.63 240.92 12.51Q239.04 10.39 234.56 10.39L234.56 10.39Q232.32 10.39 230.36 11.83Q228.40 13.27 228.40 15.99L228.40 15.99Q228.40 17.27 229.04 18.15Q229.68 19.03 230.32 19.51Q230.96 19.99 230.96 20.15L230.96 20.15Q230.96 20.47 230.04 21.31Q229.12 22.15 227.52 22.15L227.52 22.15Q225.04 22.15 223.68 20.31Q222.32 18.47 222.32 16.23L222.32 16.23Q222.32 13.19 224.20 11.43Q226.08 9.67 229.04 8.87Q232 8.07 235.04 8.07L235.04 8.07Q238.64 8.07 242.04 8.95Q245.44 9.83 247.64 12.31Q249.84 14.79 249.84 19.75L249.84 19.75L249.84 38.39Q249.92 39.19 250.24 40.31Q250.56 41.43 251.48 42.27Q252.40 43.11 254 43.11L254 43.11Q254.56 43.11 254.88 43.31Q255.20 43.51 255.20 44.39L255.20 44.39Q255.20 45.11 254.40 45.51Q253.60 45.91 252.56 46.07Q251.52 46.23 250.80 46.23L250.80 46.23Q247.84 46.23 245.52 44.51Q243.20 42.79 242.80 39.75L242.80 39.75Q241.04 42.95 237.56 44.59Q234.08 46.23 230.16 46.23 zM232.72 41.91L232.72 41.91Q235.44 41.91 237.72 40.55Q240 39.19 241.40 36.83Q242.80 34.47 242.80 31.59L242.80 31.59L242.80 27.03Q234.56 27.59 231.04 29.67Q227.52 31.75 227.52 36.47L227.52 36.47Q227.52 41.91 232.72 41.91" style="fill: rgb(255, 86, 255);" transform="translate(-188.227,-22.637)"></path></g><g class="path" style="opacity: 1; transform-origin: 92.89px 3.95px; transform: matrix3d(0.91, 0, 0, 0, 0, 0.91, 0, 0, 0, 0, 0.91, 0, 0, 0, 0, 1); animation: 0.769231s linear -0.101538s infinite normal forwards running animate-ndwajsuxti; transform-box: view-box;"><path d="M260.32 45.51L260.32 45.51Q259.76 45.51 259.40 44.99Q259.04 44.47 259.04 43.91L259.04 43.91Q259.20 42.71 259.68 42.59Q260.16 42.47 260.96 42.47L260.96 42.47Q263.20 42.47 264 41.71Q264.80 40.95 264.92 39.67Q265.04 38.39 265.04 37.03L265.04 37.03L265.04 18.71Q265.04 17.27 264.92 16.03Q264.80 14.79 264 14.03Q263.20 13.27 260.96 13.27L260.96 13.27Q260.24 13.27 259.64 13.07Q259.04 12.87 259.04 11.67L259.04 11.67Q259.04 10.47 260.32 10.23L260.32 10.23Q264 9.67 265.96 9.11Q267.92 8.55 268.92 8.15Q269.92 7.75 270.72 7.67L270.72 7.67Q271.36 7.59 271.80 7.91Q272.24 8.23 272.24 9.19L272.24 9.19L272.24 14.23L272.48 14.23Q274.08 12.71 275.76 11.31Q277.44 9.91 279.72 8.99Q282 8.07 285.36 8.07L285.36 8.07Q290.80 8.07 294 11.35Q297.20 14.63 297.20 19.99L297.20 19.99L297.20 37.03Q297.20 38.39 297.32 39.67Q297.44 40.95 298.28 41.71Q299.12 42.47 301.36 42.47L301.36 42.47Q302.08 42.47 302.60 42.59Q303.12 42.71 303.20 43.91L303.20 43.91Q303.20 44.47 302.88 44.99Q302.56 45.51 301.92 45.51L301.92 45.51Q299.60 45.35 297.64 45.31Q295.68 45.27 293.52 45.27L293.52 45.27Q291.36 45.27 289.44 45.31Q287.52 45.35 285.20 45.51L285.20 45.51Q284.64 45.51 284.28 44.99Q283.92 44.47 283.92 43.91L283.92 43.91Q284 42.71 284.52 42.59Q285.04 42.47 285.76 42.47L285.76 42.47Q288 42.47 288.84 41.71Q289.68 40.95 289.80 39.67Q289.92 38.39 289.92 37.03L289.92 37.03L289.92 20.07Q289.92 17.43 288.76 15.75Q287.60 14.07 285.84 13.27Q284.08 12.47 282.24 12.47L282.24 12.47Q279.52 12.47 277.44 13.47Q275.36 14.47 274.08 15.75Q272.80 17.03 272.32 17.99L272.32 17.99L272.32 37.03Q272.32 38.39 272.44 39.67Q272.56 40.95 273.40 41.71Q274.24 42.47 276.48 42.47L276.48 42.47Q277.20 42.47 277.72 42.59Q278.24 42.71 278.32 43.91L278.32 43.91Q278.32 44.47 278 44.99Q277.68 45.51 277.04 45.51L277.04 45.51Q274.72 45.35 272.76 45.31Q270.80 45.27 268.64 45.27L268.64 45.27Q266.48 45.27 264.56 45.31Q262.64 45.35 260.32 45.51" style="fill: rgb(203, 255, 98);" transform="translate(-188.227,-22.637)"></path></g><g class="path" style="opacity: 1; transform-origin: 135.14px 4.51px; transform: matrix3d(0.91, 0, 0, 0, 0, 0.91, 0, 0, 0, 0, 0.91, 0, 0, 0, 0, 1); animation: 0.769231s linear -0.0507692s infinite normal forwards running animate-ndwajsuxti; transform-box: view-box;"><path d="M324.72 46.23L324.72 46.23Q316.48 46.23 311.88 40.99Q307.28 35.75 307.28 27.11L307.28 27.11Q307.52 21.59 310.04 17.35Q312.56 13.11 316.76 10.67Q320.96 8.23 326.08 8.07L326.08 8.07Q328.88 8.07 331.80 8.75Q334.72 9.43 336.68 11.23Q338.64 13.03 338.64 16.39L338.64 16.39Q338.64 18.71 337.20 20.67Q335.76 22.63 333.20 22.63L333.20 22.63Q331.44 22.63 330.48 21.75Q329.52 20.87 329.52 20.47L329.52 20.47Q329.52 20.31 330.20 19.79Q330.88 19.27 331.52 18.35Q332.16 17.43 332.16 16.07L332.16 16.07Q332.16 13.51 330.32 12.31Q328.48 11.11 326.16 11.03L326.16 11.03Q322.64 11.03 320.52 12.47Q318.40 13.91 317.28 16.27Q316.16 18.63 315.80 21.43Q315.44 24.23 315.44 26.87L315.44 26.87Q315.44 31.27 316.80 34.75Q318.16 38.23 320.64 40.23Q323.12 42.23 326.56 42.23L326.56 42.23Q330.08 42.23 332.48 40.71Q334.88 39.19 336.88 36.23L336.88 36.23Q337.44 35.43 338.56 36.07L338.56 36.07Q339.12 36.39 339.36 36.95Q339.60 37.51 339.20 38.07L339.20 38.07Q336.56 41.83 332.64 44.03Q328.72 46.23 324.72 46.23" style="fill: rgb(251, 69, 115);" transform="translate(-188.227,-22.637)"></path></g><g class="path" style="opacity: 1; transform-origin: 173.96px 4.51px; transform: matrix3d(0.91, 0, 0, 0, 0, 0.91, 0, 0, 0, 0, 0.91, 0, 0, 0, 0, 1); animation: 0.769231s linear 0s infinite normal forwards running animate-ndwajsuxti; transform-box: view-box;"><path d="M364 46.23L364 46.23Q357.84 46.23 353.64 43.59Q349.44 40.95 347.36 36.55Q345.28 32.15 345.28 26.95L345.28 26.95Q345.28 23.43 346.52 20.11Q347.76 16.79 350.08 14.03Q352.40 11.27 355.68 9.67Q358.96 8.07 363.12 8.07L363.12 8.07Q370.48 8.07 374.20 11.87Q377.92 15.67 378.48 21.51L378.48 21.51Q378.48 24.31 376.92 25.19Q375.36 26.07 372.88 26.07L372.88 26.07L353.44 26.07Q353.44 30.71 354.72 34.35Q356 37.99 358.76 40.11Q361.52 42.23 366.08 42.23L366.08 42.23Q369.44 42.23 371.84 40.79Q374.24 39.35 376.48 35.75L376.48 35.75Q377.12 34.95 378.24 35.67L378.24 35.67Q378.88 35.99 379.04 36.67Q379.20 37.35 378.88 37.83L378.88 37.83Q376.40 41.75 372.64 43.99Q368.88 46.23 364 46.23 zM353.44 23.03L353.44 23.03L366.48 23.03Q368.40 23.03 369.56 22.27Q370.72 21.51 370.80 19.67L370.80 19.67Q370.80 16.23 368.92 13.55Q367.04 10.87 363.12 10.87L363.12 10.87Q359.12 10.87 356.44 14.07Q353.76 17.27 353.44 23.03" style="fill: rgb(3, 126, 243);" transform="translate(-188.227,-22.637)"></path></g></g><text dy="0.35em" fill="#037ef3" font-family="Alice" font-size="80">in advance</text>
</g>
</g><style type="text/css">@keyframes animate-ndwajsuxti { 0.00% {transform: translate(0.00px,0.00px) rotate(0.00deg) scale(0.91, 0.91) skew(0deg, 0.00deg) ;opacity: 1.00;}4.00% {transform: translate(0.00px,0.00px) rotate(0.00deg) scale(0.91, 0.91) ;}8.00% {animation-timing-function: cubic-bezier(0.69,0.60,0.35,0.27);transform: translate(0.00px,0.00px) rotate(0.00deg) scale(0.91, 0.91) ;}14.00% {transform: translate(0.00px,0.00px) rotate(0.00deg) scale(0.93, 0.93) ;}18.00% {transform: translate(0.00px,0.00px) rotate(0.00deg) scale(0.94, 0.94) ;}22.00% {animation-timing-function: cubic-bezier(0.67,0.66,0.34,0.33);transform: translate(0.00px,0.00px) rotate(0.00deg) scale(0.96, 0.96) ;}26.00% {transform: translate(0.00px,0.00px) rotate(0.00deg) scale(0.97, 0.97) ;}30.00% {transform: translate(0.00px,0.00px) rotate(0.00deg) scale(0.99, 0.99) ;}34.00% {animation-timing-function: cubic-bezier(0.65,0.71,0.32,0.38);transform: translate(0.00px,0.00px) rotate(0.00deg) scale(1.01, 1.01) ;}40.00% {animation-timing-function: cubic-bezier(0.64,0.74,0.31,0.41);transform: translate(0.00px,0.00px) rotate(0.00deg) scale(1.02, 1.02) ;}46.00% {animation-timing-function: cubic-bezier(0.60,0.91,0.23,0.63);transform: translate(0.00px,0.00px) rotate(0.00deg) scale(1.03, 1.03) ;}50.00% {transform: translate(0.00px,0.00px) rotate(0.00deg) scale(1.03, 1.03) ;}54.00% {transform: translate(0.00px,0.00px) rotate(0.00deg) scale(1.03, 1.03) ;}58.00% {animation-timing-function: cubic-bezier(0.69,0.60,0.35,0.27);transform: translate(0.00px,0.00px) rotate(0.00deg) scale(1.03, 1.03) ;}64.00% {transform: translate(0.00px,0.00px) rotate(0.00deg) scale(1.01, 1.01) ;}68.00% {transform: translate(0.00px,0.00px) rotate(0.00deg) scale(1.00, 1.00) ;}72.00% {animation-timing-function: cubic-bezier(0.67,0.66,0.34,0.33);transform: translate(0.00px,0.00px) rotate(0.00deg) scale(0.98, 0.98) ;}76.00% {animation-timing-function: cubic-bezier(0.66,0.68,0.33,0.35);transform: translate(0.00px,0.00px) rotate(0.00deg) scale(0.97, 0.97) ;}82.00% {animation-timing-function: cubic-bezier(0.65,0.71,0.32,0.38);transform: translate(0.00px,0.00px) rotate(0.00deg) scale(0.94, 0.94) ;}88.00% {animation-timing-function: cubic-bezier(0.65,0.73,0.31,0.40);transform: translate(0.00px,0.00px) rotate(0.00deg) scale(0.92, 0.92) ;}94.00% {animation-timing-function: cubic-bezier(0.63,0.80,0.28,0.48);transform: translate(0.00px,0.00px) rotate(0.00deg) scale(0.91, 0.91) ;}100.00% {animation-timing-function: cubic-bezier(0.63,0.80,0.28,0.48);transform: translate(0.00px,0.00px) rotate(0.00deg) scale(0.91, 0.91) ;} }</style><!-- [ldio] generated by https://loading.io --></svg>