<svg xmlns="http://www.w3.org/2000/svg" xmlns:xlink="http://www.w3.org/1999/xlink" viewBox="0 0 456 92" preserveAspectRatio="xMidYMid" style="display: block; shape-rendering: auto; background: transparent;" width="456" height="92"><style type="text/css">
  .ld-text text {
    text-anchor: middle;
    dominant-baseline: middle;
    font-size: 80px;
    opacity: 0;
    user-select: none;
    pointer-events: none;
  }
</style>
<g style="transform-origin:228px 46px;transform:scale(1)" class="ld-text">
<g transform="translate(228,46)">
  <g transform="scale(1.0000) translate(0,0)"><g class="path" style="opacity: 1; transform-origin: -184.73px 5.4px; transform: matrix3d(0.91, 0, 0, 0, 0, 0.91, 0, 0, 0, 0, 0.91, 0, 0, 0, 0, 1); animation: 0.769231s linear -0.465385s infinite normal forwards running animate-ndwajsuxti; transform-box: view-box;"><path d="M23.52 47.38L18.80 47.38L8.56 18.98Q7.28 16.02 6.08 14.78Q4.88 13.54 2.48 13.22L2.48 13.22Q1.44 13.06 1.08 12.90Q0.72 12.74 0.64 11.70L0.64 11.70Q0.56 10.34 1.40 10.22Q2.24 10.10 3.44 10.02L3.44 10.02Q8.40 9.78 11.20 11.46Q14 13.14 15.76 17.14L15.76 17.14L23.12 37.86L23.36 37.86Q24.16 35.30 25.28 31.42Q26.40 27.54 27.56 23.38Q28.72 19.22 29.68 15.66Q30.64 12.10 31.12 10.34L31.12 10.34L34.96 10.34L45.92 37.86L46.16 37.86Q47.28 34.50 48.32 30.46Q49.36 26.42 50.24 22.70Q51.12 18.98 51.76 16.58L51.76 16.58Q52.24 14.42 51.60 13.78Q50.96 13.14 48.72 13.14L48.72 13.14Q48 13.14 47.52 13.02Q47.04 12.90 46.96 11.70L46.96 11.70Q46.96 11.22 47.24 10.66Q47.52 10.10 48.08 10.10L48.08 10.10Q50.40 10.18 52.12 10.26Q53.84 10.34 55.92 10.34L55.92 10.34Q58 10.34 59.16 10.26Q60.32 10.18 62.64 10.10L62.64 10.10Q63.28 10.10 63.56 10.66Q63.84 11.22 63.84 11.70L63.84 11.70Q63.76 12.90 63.24 13.02Q62.72 13.14 62.08 13.14L62.08 13.14Q59.20 13.14 57.56 14.10Q55.92 15.06 55.20 17.86L55.20 17.86L46.32 47.38L41.60 47.38L31.44 21.22L23.52 47.38" style="fill: rgb(3, 126, 243);" transform="translate(-216.963,-23.289)"></path></g><g class="path" style="opacity: 1; transform-origin: -140.84px 4.6px; transform: matrix3d(0.91, 0, 0, 0, 0, 0.91, 0, 0, 0, 0, 0.91, 0, 0, 0, 0, 1); animation: 0.769231s linear -0.423077s infinite normal forwards running animate-ndwajsuxti; transform-box: view-box;"><path d="M67.76 46.82L67.76 46.82Q67.20 46.82 66.84 46.30Q66.48 45.78 66.48 45.22L66.48 45.22Q66.64 44.02 67.12 43.90Q67.60 43.78 68.40 43.78L68.40 43.78Q70.64 43.78 71.44 43.02Q72.24 42.26 72.36 40.98Q72.48 39.70 72.48 38.34L72.48 38.34L72.48 20.02Q72.48 18.58 72.36 17.34Q72.24 16.10 71.44 15.34Q70.64 14.58 68.40 14.58L68.40 14.58Q67.68 14.58 67.08 14.38Q66.48 14.18 66.48 12.98L66.48 12.98Q66.48 11.78 67.76 11.54L67.76 11.54Q71.44 10.98 73.40 10.42Q75.36 9.86 76.40 9.46Q77.44 9.06 78.24 8.98L78.24 8.98Q78.88 8.90 79.32 9.22Q79.76 9.54 79.76 10.50L79.76 10.50L79.76 38.34Q79.76 39.70 79.88 40.98Q80 42.26 80.84 43.02Q81.68 43.78 83.92 43.78L83.92 43.78Q84.64 43.78 85.16 43.90Q85.68 44.02 85.76 45.22L85.76 45.22Q85.76 45.78 85.44 46.30Q85.12 46.82 84.48 46.82L84.48 46.82Q82.16 46.66 80.20 46.62Q78.24 46.58 76.08 46.58L76.08 46.58Q73.92 46.58 72 46.62Q70.08 46.66 67.76 46.82" style="fill: rgb(248, 90, 64);" transform="translate(-216.963,-23.289)"></path></g><g class="path" style="opacity: 1; transform-origin: -141.28px -27.99px; transform: matrix3d(0.91, 0, 0, 0, 0, 0.91, 0, 0, 0, 0, 0.91, 0, 0, 0, 0, 1); animation: 0.769231s linear -0.380769s infinite normal forwards running animate-ndwajsuxti; transform-box: view-box;"><path d="M75.68 0.10L75.68 0.10Q73.44 0.10 71.92-1.30Q70.40-2.70 70.40-4.78L70.40-4.78Q70.40-6.62 72.24-8.06Q74.08-9.50 76.40-9.50L76.40-9.50Q78.40-9.50 79.68-8.10Q80.96-6.70 80.96-4.54L80.96-4.54Q80.96-2.62 79.44-1.26Q77.92 0.10 75.68 0.10" style="fill: rgb(0, 181, 135);" transform="translate(-216.963,-23.289)"></path></g><g class="path" style="opacity: 1; transform-origin: -111.84px 5.17px; transform: matrix3d(0.91, 0, 0, 0, 0, 0.91, 0, 0, 0, 0, 0.91, 0, 0, 0, 0, 1); animation: 0.769231s linear -0.338462s infinite normal forwards running animate-ndwajsuxti; transform-box: view-box;"><path d="M104.96 47.54L104.96 47.54Q98.80 47.54 94.68 45.34Q90.56 43.14 90.56 38.98L90.56 38.98Q90.56 36.66 91.96 35.22Q93.36 33.78 95.60 33.78L95.60 33.78Q97.04 33.78 97.96 34.54Q98.88 35.30 98.88 35.62L98.88 35.62Q98.88 35.86 97.96 36.70Q97.04 37.54 97.04 39.38L97.04 39.38Q97.04 41.62 99.16 43.10Q101.28 44.58 105.60 44.58L105.60 44.58Q109.36 44.58 111.48 42.94Q113.60 41.30 113.60 38.34L113.60 38.34Q113.60 35.94 112.04 34.62Q110.48 33.30 108.04 32.50Q105.60 31.70 102.84 30.90Q100.08 30.10 97.60 28.90Q95.12 27.70 93.56 25.58Q92 23.46 92 19.94L92 19.94Q92 16.34 94.16 14.02Q96.32 11.70 99.68 10.54Q103.04 9.38 106.48 9.38L106.48 9.38Q109.44 9.38 112.08 10.22Q114.72 11.06 116.44 12.74Q118.16 14.42 118.16 16.98L118.16 16.98Q118.16 18.98 116.88 20.58Q115.60 22.18 113.36 22.18L113.36 22.18Q111.92 22.18 111 21.42Q110.08 20.66 110.08 20.34L110.08 20.34Q110.08 20.18 110.68 19.74Q111.28 19.30 111.84 18.54Q112.40 17.78 112.40 16.58L112.40 16.58Q112.24 14.26 110.16 13.14Q108.08 12.02 105.52 12.02L105.52 12.02Q102.72 12.02 100.32 13.38Q97.92 14.74 97.92 17.30L97.92 17.30Q97.92 19.62 98.92 20.90Q99.92 22.18 102.12 23.10Q104.32 24.02 107.84 25.14L107.84 25.14Q111.36 26.26 114.04 27.46Q116.72 28.66 118.20 30.62Q119.68 32.58 119.68 35.94L119.68 35.94Q119.68 39.30 117.76 41.94Q115.84 44.58 112.52 46.06Q109.20 47.54 104.96 47.54" style="fill: rgb(10, 142, 160);" transform="translate(-216.963,-23.289)"></path></g><g class="path" style="opacity: 1; transform-origin: -70.12px -5.75px; transform: matrix3d(0.91, 0, 0, 0, 0, 0.91, 0, 0, 0, 0, 0.91, 0, 0, 0, 0, 1); animation: 0.769231s linear -0.296154s infinite normal forwards running animate-ndwajsuxti; transform-box: view-box;"><path d="M126.08 46.82L126.08 46.82Q125.44 46.82 125.12 46.30Q124.80 45.78 124.80 45.22L124.80 45.22Q124.88 44.02 125.40 43.90Q125.92 43.78 126.64 43.78L126.64 43.78Q128.88 43.78 129.72 43.02Q130.56 42.26 130.68 40.98Q130.80 39.70 130.80 38.34L130.80 38.34L130.80-0.70Q130.80-2.14 130.68-3.38Q130.56-4.62 129.76-5.38Q128.96-6.14 126.72-6.14L126.72-6.14Q126-6.14 125.40-6.34Q124.80-6.54 124.80-7.74L124.80-7.74Q124.80-8.94 126.08-9.18L126.08-9.18Q129.76-9.74 131.72-10.30Q133.68-10.86 134.72-11.30Q135.76-11.74 136.56-11.74L136.56-11.74Q137.20-11.74 137.64-11.46Q138.08-11.18 138.08-10.22L138.08-10.22L138.08 15.54L138.24 15.54Q139.84 14.02 141.52 12.62Q143.20 11.22 145.48 10.30Q147.76 9.38 151.12 9.38L151.12 9.38Q156.56 9.38 159.76 12.66Q162.96 15.94 162.96 21.30L162.96 21.30L162.96 38.34Q162.96 39.70 163.08 40.98Q163.20 42.26 164.04 43.02Q164.88 43.78 167.04 43.78L167.04 43.78Q167.84 43.78 168.32 43.90Q168.80 44.02 168.88 45.22L168.88 45.22Q168.88 45.78 168.60 46.30Q168.32 46.82 167.68 46.82L167.68 46.82Q165.36 46.66 163.36 46.62Q161.36 46.58 159.28 46.58L159.28 46.58Q157.12 46.58 155.20 46.62Q153.28 46.66 150.96 46.82L150.96 46.82Q150.32 46.82 150 46.30Q149.68 45.78 149.68 45.22L149.68 45.22Q149.76 44.02 150.24 43.90Q150.72 43.78 151.52 43.78L151.52 43.78Q153.76 43.78 154.60 43.02Q155.44 42.26 155.52 40.98Q155.60 39.70 155.60 38.34L155.60 38.34L155.60 21.38Q155.60 17.38 153.20 15.58Q150.80 13.78 148 13.78L148 13.78Q145.28 13.78 143.20 14.78Q141.12 15.78 139.84 17.06Q138.56 18.34 138.08 19.30L138.08 19.30L138.08 38.34Q138.08 39.70 138.20 40.98Q138.32 42.26 139.16 43.02Q140 43.78 142.16 43.78L142.16 43.78Q142.96 43.78 143.44 43.90Q143.92 44.02 144 45.22L144 45.22Q144 45.78 143.72 46.30Q143.44 46.82 142.80 46.82L142.80 46.82Q140.48 46.66 138.48 46.62Q136.48 46.58 134.40 46.58L134.40 46.58Q132.24 46.58 130.32 46.62Q128.40 46.66 126.08 46.82" style="fill: rgb(244, 137, 36);" transform="translate(-216.963,-23.289)"></path></g><g class="path" style="opacity: 1; transform-origin: -34.6px 4.6px; transform: matrix3d(0.91, 0, 0, 0, 0, 0.91, 0, 0, 0, 0, 0.91, 0, 0, 0, 0, 1); animation: 0.769231s linear -0.253846s infinite normal forwards running animate-ndwajsuxti; transform-box: view-box;"><path d="M174 46.82L174 46.82Q173.44 46.82 173.08 46.30Q172.72 45.78 172.72 45.22L172.72 45.22Q172.88 44.02 173.36 43.90Q173.84 43.78 174.64 43.78L174.64 43.78Q176.88 43.78 177.68 43.02Q178.48 42.26 178.60 40.98Q178.72 39.70 178.72 38.34L178.72 38.34L178.72 20.02Q178.72 18.58 178.60 17.34Q178.48 16.10 177.68 15.34Q176.88 14.58 174.64 14.58L174.64 14.58Q173.92 14.58 173.32 14.38Q172.72 14.18 172.72 12.98L172.72 12.98Q172.72 11.78 174 11.54L174 11.54Q177.68 10.98 179.64 10.42Q181.60 9.86 182.64 9.46Q183.68 9.06 184.48 8.98L184.48 8.98Q185.12 8.90 185.56 9.22Q186 9.54 186 10.50L186 10.50L186 38.34Q186 39.70 186.12 40.98Q186.24 42.26 187.08 43.02Q187.92 43.78 190.16 43.78L190.16 43.78Q190.88 43.78 191.40 43.90Q191.92 44.02 192 45.22L192 45.22Q192 45.78 191.68 46.30Q191.36 46.82 190.72 46.82L190.72 46.82Q188.40 46.66 186.44 46.62Q184.48 46.58 182.32 46.58L182.32 46.58Q180.16 46.58 178.24 46.62Q176.32 46.66 174 46.82" style="fill: rgb(190, 137, 13);" transform="translate(-216.963,-23.289)"></path></g><g class="path" style="opacity: 1; transform-origin: -35.04px -27.99px; transform: matrix3d(0.91, 0, 0, 0, 0, 0.91, 0, 0, 0, 0, 0.91, 0, 0, 0, 0, 1); animation: 0.769231s linear -0.211538s infinite normal forwards running animate-ndwajsuxti; transform-box: view-box;"><path d="M181.92 0.10L181.92 0.10Q179.68 0.10 178.16-1.30Q176.64-2.70 176.64-4.78L176.64-4.78Q176.64-6.62 178.48-8.06Q180.32-9.50 182.64-9.50L182.64-9.50Q184.64-9.50 185.92-8.10Q187.20-6.70 187.20-4.54L187.20-4.54Q187.20-2.62 185.68-1.26Q184.16 0.10 181.92 0.10" style="fill: rgb(255, 86, 255);" transform="translate(-216.963,-23.289)"></path></g><g class="path" style="opacity: 1; transform-origin: 1.12px 4.6px; transform: matrix3d(0.91, 0, 0, 0, 0, 0.91, 0, 0, 0, 0, 0.91, 0, 0, 0, 0, 1); animation: 0.769231s linear -0.169231s infinite normal forwards running animate-ndwajsuxti; transform-box: view-box;"><path d="M197.28 46.82L197.28 46.82Q196.72 46.82 196.36 46.30Q196 45.78 196 45.22L196 45.22Q196.16 44.02 196.64 43.90Q197.12 43.78 197.92 43.78L197.92 43.78Q200.16 43.78 200.96 43.02Q201.76 42.26 201.88 40.98Q202 39.70 202 38.34L202 38.34L202 20.02Q202 18.58 201.88 17.34Q201.76 16.10 200.96 15.34Q200.16 14.58 197.92 14.58L197.92 14.58Q197.20 14.58 196.60 14.38Q196 14.18 196 12.98L196 12.98Q196 11.78 197.28 11.54L197.28 11.54Q200.96 10.98 202.92 10.42Q204.88 9.86 205.88 9.46Q206.88 9.06 207.68 8.98L207.68 8.98Q208.32 8.90 208.76 9.22Q209.20 9.54 209.20 10.50L209.20 10.50L209.20 15.54L209.44 15.54Q211.04 14.02 212.72 12.62Q214.40 11.22 216.68 10.30Q218.96 9.38 222.32 9.38L222.32 9.38Q227.76 9.38 230.96 12.66Q234.16 15.94 234.16 21.30L234.16 21.30L234.16 38.34Q234.16 39.70 234.28 40.98Q234.40 42.26 235.24 43.02Q236.08 43.78 238.32 43.78L238.32 43.78Q239.04 43.78 239.56 43.90Q240.08 44.02 240.16 45.22L240.16 45.22Q240.16 45.78 239.84 46.30Q239.52 46.82 238.88 46.82L238.88 46.82Q236.56 46.66 234.60 46.62Q232.64 46.58 230.48 46.58L230.48 46.58Q228.32 46.58 226.40 46.62Q224.48 46.66 222.16 46.82L222.16 46.82Q221.60 46.82 221.24 46.30Q220.88 45.78 220.88 45.22L220.88 45.22Q220.96 44.02 221.48 43.90Q222 43.78 222.72 43.78L222.72 43.78Q224.96 43.78 225.80 43.02Q226.64 42.26 226.76 40.98Q226.88 39.70 226.88 38.34L226.88 38.34L226.88 21.38Q226.88 18.74 225.72 17.06Q224.56 15.38 222.80 14.58Q221.04 13.78 219.20 13.78L219.20 13.78Q216.48 13.78 214.40 14.78Q212.32 15.78 211.04 17.06Q209.76 18.34 209.28 19.30L209.28 19.30L209.28 38.34Q209.28 39.70 209.40 40.98Q209.52 42.26 210.36 43.02Q211.20 43.78 213.44 43.78L213.44 43.78Q214.16 43.78 214.68 43.90Q215.20 44.02 215.28 45.22L215.28 45.22Q215.28 45.78 214.96 46.30Q214.64 46.82 214 46.82L214 46.82Q211.68 46.66 209.72 46.62Q207.76 46.58 205.60 46.58L205.60 46.58Q203.44 46.58 201.52 46.62Q199.60 46.66 197.28 46.82" style="fill: rgb(101, 150, 0);" transform="translate(-216.963,-23.289)"></path></g><g class="path" style="opacity: 1; transform-origin: 46px 13.13px; transform: matrix3d(0.91, 0, 0, 0, 0, 0.91, 0, 0, 0, 0, 0.91, 0, 0, 0, 0, 1); animation: 0.769231s linear -0.126923s infinite normal forwards running animate-ndwajsuxti; transform-box: view-box;"><path d="M260.32 64.02L260.32 64.02Q243.44 64.02 243.44 54.42L243.44 54.42Q243.44 51.78 245.12 49.74Q246.80 47.70 249.60 47.70L249.60 47.70Q251.44 47.70 252.64 48.70Q253.84 49.70 253.84 50.10L253.84 50.10Q253.84 50.26 253.24 50.82Q252.64 51.38 252.04 52.34Q251.44 53.30 251.44 54.90L251.44 54.90Q251.44 61.06 262 61.06L262 61.06Q268 61.06 271.32 58.98Q274.64 56.90 274.64 52.66L274.64 52.66Q274.64 50.34 273.16 49.14Q271.68 47.94 269.24 47.46Q266.80 46.98 263.84 46.86Q260.88 46.74 257.88 46.66Q254.88 46.58 252.32 46.18L252.32 46.18Q249.52 45.70 247.64 44.30Q245.76 42.90 245.76 39.70L245.76 39.70Q245.76 36.74 247.88 34.54Q250 32.34 254.24 32.34L254.24 32.34Q249.12 30.34 247.40 27.46Q245.68 24.58 245.68 21.54L245.68 21.54Q245.68 18.10 247.64 15.34Q249.60 12.58 253.08 10.94Q256.56 9.30 261.12 9.30L261.12 9.30Q263.36 9.30 265.80 9.66Q268.24 10.02 270 10.90L270 10.90L280.96 8.82Q281.84 8.74 282.16 9.38Q282.48 10.02 282.48 10.74L282.48 10.74Q282.48 11.78 282.16 12.78Q281.84 13.78 281.28 13.78L281.28 13.78L273.36 13.46L273.36 13.62Q274.72 14.98 275.68 17.22Q276.64 19.46 276.64 21.46L276.64 21.46Q276.64 25.30 274.44 28.10Q272.24 30.90 268.84 32.38Q265.44 33.86 261.76 33.86L261.76 33.86L258.24 33.86Q254.08 33.86 252.20 34.66Q250.32 35.46 250.32 37.30L250.32 37.30Q250.32 38.74 251.32 39.50Q252.32 40.26 254.96 40.42L254.96 40.42L265.92 40.82Q274.48 41.14 278.12 43.54Q281.76 45.94 281.76 50.66L281.76 50.66Q281.76 54.90 279.08 57.90Q276.40 60.90 271.56 62.46Q266.72 64.02 260.32 64.02 zM261.12 31.54L261.12 31.54Q264.80 31.54 267.12 28.94Q269.44 26.34 269.44 21.46L269.44 21.46Q269.44 16.98 267.08 14.38Q264.72 11.78 261.04 11.78L261.04 11.78Q257.52 11.78 255.16 14.30Q252.80 16.82 252.80 21.30L252.80 21.30Q252.80 26.18 255.16 28.86Q257.52 31.54 261.12 31.54" style="fill: rgb(251, 69, 115);" transform="translate(-216.963,-23.289)"></path></g><g class="path" style="opacity: 1; transform-origin: 105.56px 13.72px; transform: matrix3d(0.91, 0, 0, 0, 0, 0.91, 0, 0, 0, 0, 0.91, 0, 0, 0, 0, 1); animation: 0.769231s linear -0.0846154s infinite normal forwards running animate-ndwajsuxti; transform-box: view-box;"><path d="M308.64 64.02L308.64 64.02Q306.32 64.02 304.28 62.98Q302.24 61.94 301.04 60.22Q299.84 58.50 299.84 56.50L299.84 56.50Q299.92 54.34 300.76 53.18Q301.60 52.02 302.64 51.58Q303.68 51.14 304.40 51.06Q305.12 50.98 304.96 50.98L304.96 50.98Q306.48 50.98 307.28 51.58Q308.08 52.18 308.08 52.58L308.08 52.58Q308.08 52.74 307.48 53.34Q306.88 53.94 306.80 55.46L306.80 55.46Q306.72 56.90 307.68 58.26Q308.64 59.62 310.64 59.62L310.64 59.62Q312.88 59.62 314.72 57.98Q316.56 56.34 318 53.94Q319.44 51.54 320.48 49.30L320.48 49.30Q321.04 47.54 320.40 45.62L320.40 45.62Q318.48 41.30 316.64 36.42Q314.80 31.54 313.08 26.98Q311.36 22.42 309.68 18.98L309.68 18.98Q308.40 16.02 307.20 14.78Q306 13.54 303.60 13.22L303.60 13.22Q302.56 13.06 302.20 12.90Q301.84 12.74 301.76 11.70L301.76 11.70Q301.68 10.34 302.52 10.22Q303.36 10.10 304.56 10.02L304.56 10.02Q309.52 9.78 312.32 11.46Q315.12 13.14 316.88 17.14L316.88 17.14Q318 19.62 319.36 23.30Q320.72 26.98 322.24 30.74Q323.76 34.50 325.20 37.54L325.20 37.54L325.44 37.54L333.28 16.58Q334.08 14.26 333.36 13.70Q332.64 13.14 330.24 13.14L330.24 13.14Q329.52 13.14 329.04 13.02Q328.56 12.90 328.48 11.70L328.48 11.70Q328.48 11.22 328.76 10.66Q329.04 10.10 329.60 10.10L329.60 10.10Q331.92 10.18 333.60 10.26Q335.28 10.34 337.36 10.34L337.36 10.34Q338.80 10.34 339.68 10.30Q340.56 10.26 341.52 10.22Q342.48 10.18 344 10.10L344 10.10Q344.64 10.10 344.92 10.66Q345.20 11.22 345.20 11.70L345.20 11.70Q345.12 12.90 344.60 13.02Q344.08 13.14 343.44 13.14L343.44 13.14Q340.80 13.14 339.24 14.10Q337.68 15.06 336.56 17.86L336.56 17.86Q336.56 17.86 335.72 19.94Q334.88 22.02 333.52 25.38Q332.16 28.74 330.64 32.46Q329.12 36.18 327.76 39.54Q326.40 42.90 325.52 45.06Q324.64 47.22 324.56 47.38L324.56 47.38Q323.52 49.86 322.04 52.78Q320.56 55.70 318.60 58.22Q316.64 60.74 314.16 62.38Q311.68 64.02 308.64 64.02" style="fill: rgb(3, 126, 243);" transform="translate(-216.963,-23.289)"></path></g><g class="path" style="opacity: 1; transform-origin: 148.48px 5.17px; transform: matrix3d(0.91, 0, 0, 0, 0, 0.91, 0, 0, 0, 0, 0.91, 0, 0, 0, 0, 1); animation: 0.769231s linear -0.0423077s infinite normal forwards running animate-ndwajsuxti; transform-box: view-box;"><path d="M365.44 47.54L365.44 47.54Q359.84 47.54 355.64 44.90Q351.44 42.26 349.12 38.02Q346.80 33.78 346.80 28.98L346.80 28.98Q346.80 24.26 348.48 20.58Q350.16 16.90 352.92 14.42Q355.68 11.94 358.96 10.66Q362.24 9.38 365.44 9.38L365.44 9.38Q371.04 9.38 375.24 12.02Q379.44 14.66 381.76 18.90Q384.08 23.14 384.08 27.94L384.08 27.94Q384.08 32.66 382.36 36.34Q380.64 40.02 377.88 42.50Q375.12 44.98 371.84 46.26Q368.56 47.54 365.44 47.54 zM365.44 44.58L365.44 44.58Q369.36 44.58 371.64 42.26Q373.92 39.94 374.92 36.14Q375.92 32.34 375.92 27.94L375.92 27.94Q375.92 23.70 374.88 20.18Q373.84 16.66 371.52 14.50Q369.20 12.34 365.44 12.34L365.44 12.34Q361.52 12.34 359.20 14.62Q356.88 16.90 355.92 20.62Q354.96 24.34 354.96 28.82L354.96 28.82Q354.96 32.98 355.96 36.58Q356.96 40.18 359.28 42.38Q361.60 44.58 365.44 44.58" style="fill: rgb(248, 90, 64);" transform="translate(-216.963,-23.289)"></path></g><g class="path" style="opacity: 1; transform-origin: 194.68px 5.36px; transform: matrix3d(0.91, 0, 0, 0, 0, 0.91, 0, 0, 0, 0, 0.91, 0, 0, 0, 0, 1); animation: 0.769231s linear 0s infinite normal forwards running animate-ndwajsuxti; transform-box: view-box;"><path d="M406.56 47.54L406.56 47.54Q401.12 47.54 397.92 44.26Q394.72 40.98 394.72 35.62L394.72 35.62L394.72 20.82Q394.72 19.38 394.60 18.14Q394.48 16.90 393.68 16.14Q392.88 15.38 390.64 15.38L390.64 15.38Q389.92 15.38 389.32 15.18Q388.72 14.98 388.72 13.78L388.72 13.78Q388.72 12.58 390 12.34L390 12.34Q393.68 11.78 395.64 11.22Q397.60 10.66 398.64 10.26Q399.68 9.86 400.48 9.78L400.48 9.78Q401.12 9.70 401.56 10.02Q402 10.34 402 11.30L402 11.30L402 35.54Q402 38.18 403.16 39.86Q404.32 41.54 406.08 42.34Q407.84 43.14 409.68 43.14L409.68 43.14Q412.48 43.14 414.56 42.14Q416.64 41.14 417.92 39.82Q419.20 38.50 419.60 37.62L419.60 37.62L419.60 20.82Q419.60 19.38 419.48 18.14Q419.36 16.90 418.56 16.14Q417.76 15.38 415.52 15.38L415.52 15.38Q414.80 15.38 414.20 15.18Q413.60 14.98 413.60 13.78L413.60 13.78Q413.60 12.58 414.88 12.34L414.88 12.34Q418.56 11.78 420.52 11.22Q422.48 10.66 423.52 10.26Q424.56 9.86 425.36 9.78L425.36 9.78Q426 9.70 426.44 10.02Q426.88 10.34 426.88 11.30L426.88 11.30L426.88 38.98Q426.88 43.70 433.20 43.70L433.20 43.70Q434.08 43.70 434.32 44.18Q434.56 44.66 434.56 45.22L434.56 45.22Q434.56 46.34 433.20 46.58L433.20 46.58L420.32 47.46Q419.76 47.46 419.68 46.98Q419.60 46.50 419.60 45.86L419.60 45.86L419.60 41.38L419.44 41.38Q417.92 42.82 416.20 44.26Q414.48 45.70 412.20 46.62Q409.92 47.54 406.56 47.54" style="fill: rgb(0, 181, 135);" transform="translate(-216.963,-23.289)"></path></g></g><text dy="0.35em" fill="#037ef3" font-family="Alice" font-size="80">wishing you</text>
</g>
</g><style type="text/css">@keyframes animate-ndwajsuxti { 0.00% {transform: translate(0.00px,0.00px) rotate(0.00deg) scale(0.91, 0.91) skew(0deg, 0.00deg) ;opacity: 1.00;}4.00% {transform: translate(0.00px,0.00px) rotate(0.00deg) scale(0.91, 0.91) ;}8.00% {animation-timing-function: cubic-bezier(0.69,0.60,0.35,0.27);transform: translate(0.00px,0.00px) rotate(0.00deg) scale(0.91, 0.91) ;}14.00% {transform: translate(0.00px,0.00px) rotate(0.00deg) scale(0.93, 0.93) ;}18.00% {transform: translate(0.00px,0.00px) rotate(0.00deg) scale(0.94, 0.94) ;}22.00% {animation-timing-function: cubic-bezier(0.67,0.66,0.34,0.33);transform: translate(0.00px,0.00px) rotate(0.00deg) scale(0.96, 0.96) ;}26.00% {transform: translate(0.00px,0.00px) rotate(0.00deg) scale(0.97, 0.97) ;}30.00% {transform: translate(0.00px,0.00px) rotate(0.00deg) scale(0.99, 0.99) ;}34.00% {animation-timing-function: cubic-bezier(0.65,0.71,0.32,0.38);transform: translate(0.00px,0.00px) rotate(0.00deg) scale(1.01, 1.01) ;}40.00% {animation-timing-function: cubic-bezier(0.64,0.74,0.31,0.41);transform: translate(0.00px,0.00px) rotate(0.00deg) scale(1.02, 1.02) ;}46.00% {animation-timing-function: cubic-bezier(0.60,0.91,0.23,0.63);transform: translate(0.00px,0.00px) rotate(0.00deg) scale(1.03, 1.03) ;}50.00% {transform: translate(0.00px,0.00px) rotate(0.00deg) scale(1.03, 1.03) ;}54.00% {transform: translate(0.00px,0.00px) rotate(0.00deg) scale(1.03, 1.03) ;}58.00% {animation-timing-function: cubic-bezier(0.69,0.60,0.35,0.27);transform: translate(0.00px,0.00px) rotate(0.00deg) scale(1.03, 1.03) ;}64.00% {transform: translate(0.00px,0.00px) rotate(0.00deg) scale(1.01, 1.01) ;}68.00% {transform: translate(0.00px,0.00px) rotate(0.00deg) scale(1.00, 1.00) ;}72.00% {animation-timing-function: cubic-bezier(0.67,0.66,0.34,0.33);transform: translate(0.00px,0.00px) rotate(0.00deg) scale(0.98, 0.98) ;}76.00% {animation-timing-function: cubic-bezier(0.66,0.68,0.33,0.35);transform: translate(0.00px,0.00px) rotate(0.00deg) scale(0.97, 0.97) ;}82.00% {animation-timing-function: cubic-bezier(0.65,0.71,0.32,0.38);transform: translate(0.00px,0.00px) rotate(0.00deg) scale(0.94, 0.94) ;}88.00% {animation-timing-function: cubic-bezier(0.65,0.73,0.31,0.40);transform: translate(0.00px,0.00px) rotate(0.00deg) scale(0.92, 0.92) ;}94.00% {animation-timing-function: cubic-bezier(0.63,0.80,0.28,0.48);transform: translate(0.00px,0.00px) rotate(0.00deg) scale(0.91, 0.91) ;}100.00% {animation-timing-function: cubic-bezier(0.63,0.80,0.28,0.48);transform: translate(0.00px,0.00px) rotate(0.00deg) scale(0.91, 0.91) ;} }</style><!-- [ldio] generated by https://loading.io --></svg>